<svg width="93" height="94" viewBox="0 0 93 94" fill="none" xmlns="http://www.w3.org/2000/svg">
    <ellipse cx="46.5" cy="47" rx="46.5" ry="47" fill="#5222D0"/>
    <g clip-path="url(#clip0_606_337)">
    <path d="M69.1648 34.6368V60.0951C69.1648 61.5399 67.8899 62.641 66.217 62.641H63.2692V39.5363L45.5826 50.5088L27.896 39.5363V62.641H24.9482C23.2754 62.641 22.0005 61.5399 22.0005 60.0951V34.6368C22.0005 33.9138 22.3159 33.2773 22.845 32.8267C23.1206 32.5886 23.4488 32.4008 23.8101 32.2744C24.1714 32.148 24.5585 32.0856 24.9482 32.091H25.9313L45.5826 44.3963L65.2339 32.091H66.217C67.0542 32.091 67.7911 32.3634 68.3202 32.8267C68.8493 33.2773 69.1648 33.9138 69.1648 34.6368Z" fill="#DBFFFF"/>
    </g>
    <defs>
    <clipPath id="clip0_606_337">
    <rect width="47.1643" height="40.7333" fill="white" transform="translate(22 27)"/>
    </clipPath>
    </defs>
    </svg>
    