<svg width="98" height="96" viewBox="0 0 98 96" fill="none" xmlns="http://www.w3.org/2000/svg">
    <ellipse cx="48.9971" cy="47.793" rx="49" ry="47.7937" fill="#5222D0"/>
    <path d="M25.929 71H35.2194V39.0875H25.929V71ZM30.5742 25C27.4774 25 25 27.3 25 30.175C25 33.05 27.4774 35.35 30.5742 35.35C33.671 35.35 36.1484 33.05 36.1484 30.175C36.1484 27.3 33.671 25 30.5742 25ZM51.0129 43.975V39.0875H41.7226V71H51.0129V54.6125C51.0129 45.4125 63.7097 44.8375 63.7097 54.6125V71H73V51.45C73 35.925 55.3484 36.5 51.0129 43.975Z" fill="#DBFFFF"/>
    </svg>
    